<svg xmlns="http://www.w3.org/2000/svg" viewBox="0 0 680 90" fill="none">
<path d="M294.0 45.0 Q152.0 32.0 10.0 45.0" stroke="#C9A227" stroke-width="1.8" fill="none"/><path d="M294.0 45.0 Q152.0 58.0 10.0 45.0" stroke="#9A711A" stroke-width="1.1" fill="none" opacity=".75"/><circle cx="197.4" cy="40.4" r="3" fill="#C9A227"/><circle cx="123.6" cy="41.4" r="3" fill="#C9A227"/><circle cx="55.4" cy="42.4" r="3" fill="#C9A227"/><path d="M26.0 45.0 q-8 -11 -16 0 q8 11 16 0z" fill="#E3CC8A"/><path d="M386.0 45.0 Q528.0 32.0 670.0 45.0" stroke="#C9A227" stroke-width="1.8" fill="none"/><path d="M386.0 45.0 Q528.0 58.0 670.0 45.0" stroke="#9A711A" stroke-width="1.1" fill="none" opacity=".75"/><circle cx="482.6" cy="40.4" r="3" fill="#C9A227"/><circle cx="556.4" cy="41.4" r="3" fill="#C9A227"/><circle cx="624.6" cy="42.4" r="3" fill="#C9A227"/><path d="M654.0 45.0 q8 -11 16 0 q-8 11 -16 0z" fill="#E3CC8A"/><ellipse cx="327.6" cy="45.0" rx="6.8" ry="19.0" fill="#C9A227" transform="rotate(270.0 327.6 45.0)"/><ellipse cx="332.3" cy="35.3" rx="6.8" ry="19.0" fill="#C9A227" transform="rotate(321.4 332.3 35.3)"/><ellipse cx="342.8" cy="32.9" rx="6.8" ry="19.0" fill="#C9A227" transform="rotate(372.9 342.8 32.9)"/><ellipse cx="351.2" cy="39.6" rx="6.8" ry="19.0" fill="#C9A227" transform="rotate(424.3 351.2 39.6)"/><ellipse cx="351.2" cy="50.4" rx="6.8" ry="19.0" fill="#C9A227" transform="rotate(475.7 351.2 50.4)"/><ellipse cx="342.8" cy="57.1" rx="6.8" ry="19.0" fill="#C9A227" transform="rotate(527.1 342.8 57.1)"/><ellipse cx="332.3" cy="54.7" rx="6.8" ry="19.0" fill="#C9A227" transform="rotate(578.6 332.3 54.7)"/><circle cx="340.0" cy="45.0" r="6" fill="#9A711A"/>
</svg>
